# xmcd
#
# Track frame offsets:
#	150
#	20908
#	35758
#	52158
#	70086
#	89828
#	105805
#	121988
#	136840
#	150929
#	164978
#	182541
#	202217
#	219875
#
# Disc length: 3154 seconds
#
# Revision: 0
# Processed by: cddbd v1.5.2PL0 Copyright (c) Steve Scherf et al.
# Submitted via: dBpowerAMP V4.0
#
DISCID=ca0c500e
DTITLE=Jose-Luis Perales - Tesoros de colección cd2
DYEAR=1900
DGENRE=
TTITLE0=Para saber de amor
TTITLE1=Escuchando esa música
TTITLE2=La reina del cafetal
TTITLE3=Corazón caribe
TTITLE4=Por qué te vas
TTITLE5=Mis tópicos
TTITLE6=Ahora que llegó la madurez
TTITLE7=No hay preguntas
TTITLE8=De profesión parao
TTITLE9=No supod enir no
TTITLE10=Pensando en tí
TTITLE11=Cántame
TTITLE12=Se equivocó el azar
TTITLE13=Como tú y yo
EXTD=
EXTT0=
EXTT1=
EXTT2=
EXTT3=
EXTT4=
EXTT5=
EXTT6=
EXTT7=
EXTT8=
EXTT9=
EXTT10=
EXTT11=
EXTT12=
EXTT13=
PLAYORDER=
